# AST/ASF file generated using VICON BodyLanguage
# -----------------------------------------------
:version 1.10
:name VICON
:units
  mass 1.0
  length 0.45
  angle deg
:documentation
   .ast/.asf automatically generated from VICON data using
   VICON BodyBuilder and BodyLanguage model FoxedUp or BRILLIANT.MOD
:root
   order TX TY TZ RX RY RZ
   axis XYZ
   position 0 0 0  
   orientation 0 0 0 
:bonedata
  begin
     id 1 
     name lhipjoint
     direction 0.561001 -0.76473 0.316963 
     length 2.4722 
     axis 0 0 0  XYZ
  end
  begin
     id 2 
     name lfemur
     direction 0.34202 -0.939693 0  
     length 7.59403  
     axis 0 0 20  XYZ
    dof rx ry rz
    limits (-160.0 20.0)
           (-70.0 70.0)
           (-60.0 70.0)
  end
  begin
     id 3 
     name ltibia
     direction 0.34202 -0.939693 0   
     length 7.89655   
     axis 0 0 20   XYZ
    dof rx
    limits (-10.0 170.0)
  end
  begin
     id 4 
     name lfoot
     direction 0.061296 -0.168409 0.98381   
     length 2.73287   
     axis -90 7.62852e-016 20   XYZ
    dof rx rz
    limits (-45.0 90.0)
           (-70.0 20.0)
  end
  begin
     id 5 
     name ltoes
     direction 1.53547e-011 -4.21984e-011 1   
     length 1.37057   
     axis -90 7.62852e-016 20   XYZ
    dof rx
    limits (-90.0 20.0)
  end
  begin
     id 6 
     name rhipjoint
     direction -0.559611 -0.765599 0.317323   
     length 2.46939  
     axis 0 0 0  XYZ 
  end
  begin
     id 7 
     name rfemur
     direction -0.34202 -0.939693 0   
     length 7.53712   
     axis 0 0 -20   XYZ
    dof rx ry rz
    limits (-160.0 20.0)
           (-70.0 70.0)
           (-70.0 60.0)
  end
  begin
     id 8 
     name rtibia
     direction -0.34202 -0.939693 0   
     length 8.12549   
     axis 0 0 -20   XYZ
    dof rx
    limits (-10.0 170.0)
 end
 begin
     id 9 
     name rfoot
     direction -0.066984 -0.184037 0.980634   
     length 2.67541  
     axis -90 -7.62852e-016 -20   XYZ
    dof rx rz
    limits (-45.0 90.0)
           (-20.0 70.0)
  end
  begin
     id 10 
     name rtoes
     direction -1.53549e-011 -4.21786e-011 1   
     length 1.34085   
     axis -90 -7.62852e-016 -20   XYZ
    dof rx
    limits (-90.0 20.0)
  end
  begin
     id 11 
     name lowerback
     direction -0.0522728 0.992594 -0.109658   
     length 2.05633   
     axis 0 0 0   XYZ
    dof rx ry rz
    limits (-20.0 45.0)
           (-30.0 30.0)
           (-30.0 30.0)
  end
  begin
     id 12 
     name upperback
     direction 0.00589338 0.999977 0.00335704   
     length 2.05845   
     axis 0 0 0   XYZ
    dof rx ry rz
    limits (-20.0 45.0)
           (-30.0 30.0)
           (-30.0 30.0)
  end
  begin
     id 13 
     name thorax
     direction 0.0292928 0.998059 0.0549487   
     length 2.09281   
     axis 0 0 0   XYZ
    dof rx ry rz
    limits (-20.0 45.0)
           (-30.0 30.0)
           (-30.0 30.0)
  end
  begin
     id 14 
     name lowerneck
     direction 0.0356368 0.980775 0.191858   
     length 1.84767   
     axis 0 0 0   XYZ
    dof rx ry rz
    limits (-20.0 45.0)
           (-30.0 30.0)
           (-30.0 30.0)
  end
  begin
     id 15 
     name upperneck
     direction -0.0227605 0.98931 -0.14404   
     length 1.89582   
     axis 0 0 0   XYZ
    dof rx ry rz
    limits (-20.0 45.0)
           (-30.0 30.0)
           (-30.0 30.0)
  end
  begin
     id 16
     name head
     direction -0.00932985 0.997511 -0.0698904  
     length 1.90213  
     axis 0 0 0   XYZ
    dof rx ry rz
    limits (-20.0 45.0)
           (-30.0 30.0)
           (-30.0 30.0)
  end
  begin
     id 17 
     name lclavicle
     direction 0.873442 0.479511 0.0846686  
     length 3.41193  
     axis 0 0 0   XYZ
    dof ry rz
    limits (-20.0 10.0)
           (0.0 20.0)
  end
  begin
     id 18 
     name lhumerus
     direction 1 -4.4897e-011 -5.62117e-018   
     length 5.59864   
     axis 180 -30 -90   XYZ
    dof rx ry rz
    limits (-60.0 90.0)
           (-90.0 90.0)
           (-90.0 90.0)
  end
  begin
     id 19
     name lradius
     direction 1 -4.48966e-011 -6.26295e-027   
     length 3.59542   
     axis 180 -30 -90   XYZ
    dof rx
    limits (-10.0 170.0)
  end
  begin
     id 20
     name lwrist
     direction 1 -4.48947e-011 -1.74096e-026   
     length 1.79771   
     axis 1.04567e-014 90 90   XYZ
    dof ry
    limits (-180.0 0.0)
 end
  begin
     id 21 
     name lhand
     direction 1 -4.49085e-011 -3.48469e-026   
     length 0.572014   
     axis 2.22196e-014 90 90   XYZ
    dof rx rz
    limits (-90.0 90.0)
           (-45.0 45.0)
  end
  begin
     id 22 
     name lfingers
     direction 1 -4.48884e-011 -6.96135e-026   
     length 0.461173   
     axis 4.44383e-014 90 90   XYZ
    dof rx
    limits (0.0 90.0)
  end
  begin
     id 23
     name lthumb
     direction 0.707107 -6.34976e-011 0.707107   
     length 0.662154   
     axis -90 45 -5.4397e-014   XYZ
    dof rx rz
    limits (-45.0 45.0)
           (-45.0 45.0)
  end
  begin
     id 24 
     name rclavicle
     direction -0.890242 0.443271 0.104786   
     length 3.46753  
     axis 0 0 0   XYZ 
    dof ry rz
    limits (-10.0 20.0)
           (-20.0 0.0)
  end
  begin
     id 25 
     name rhumerus
     direction -1 -4.48963e-011 -5.41723e-018  
     length 5.8094   
     axis 180 30 90   XYZ
    dof rx ry rz
    limits (-90.0 60.0)
           (-90.0 90.0)
           (-90.0 90.0)
  end
  begin
     id 26 
     name rradius
     direction -1 -4.48958e-011 -6.51059e-027   
     length 3.66953   
     axis 180 30 90   XYZ
    dof rx
    limits (-10.0 170.0)
  end
  begin
     id 27 
     name rwrist
     direction -1 -4.48975e-011 -1.74124e-026   
     length 1.83476   
     axis 1.04567e-014 -90 -90   XYZ
    dof ry
    limits (-180.0 0.0)
  end
  begin
     id 28
     name rhand
     direction -1 -4.49013e-011 -3.48326e-026   
     length 0.57843   
     axis 2.22196e-014 -90 -90   XYZ
    dof rx rz
    limits (-90.0 90.0)
           (-45.0 45.0)
  end
  begin
     id 29
     name rfingers
     direction -1 -4.49023e-011 -6.9669e-026   
     length 0.466345   
     axis 4.44383e-014 -90 -90   XYZ
    dof rx
    limits (0.0 90.0)
  end
  begin
     id 30
     name rthumb
     direction -0.707107 -6.34926e-011 0.707107   
     length 0.669581   
     axis -90 -45 5.4397e-014   XYZ
    dof rx rz
    limits (-45.0 45.0)
           (-45.0 45.0)
  end
:hierarchy
  begin
    root lhipjoint rhipjoint lowerback
    lhipjoint lfemur
    lfemur ltibia
    ltibia lfoot
    lfoot ltoes
    rhipjoint rfemur
    rfemur rtibia
    rtibia rfoot
    rfoot rtoes
    lowerback upperback
    upperback thorax
    thorax lowerneck lclavicle rclavicle
    lowerneck upperneck
    upperneck head
    lclavicle lhumerus
    lhumerus lradius
    lradius lwrist
    lwrist lhand lthumb
    lhand lfingers
    rclavicle rhumerus
    rhumerus rradius
    rradius rwrist
    rwrist rhand rthumb
    rhand rfingers
  end

#!OML:ASF H:\SkateBoarding\Project 1\Capture day 1\Session 1\Skater.ASF
:FULLY-SPECIFIED
:DEGREES
50
root 5.81528 19.9794 -10.1406 4.79024 39.81 1.46896
lowerback 12.5883 -1.4861 -3.65496
upperback 0.479721 -2.50611 -0.401996
thorax -6.42007 -1.1142 2.08243
lowerneck -19.8351 -5.42638 -1.22202
upperneck 34.2837 -8.70677 3.43772
head 15.6596 -3.20681 0.0379698
rclavicle -2.14687e-014 -1.27222e-014
rhumerus -34.6036 2.56907 -84.4452
rradius 33.8597
rwrist -8.44487
rhand -24.8334 -8.61519
rfingers 7.12502
rthumb 1.67251 -38.5884
lclavicle -2.14687e-014 -1.27222e-014
lhumerus -36.2607 -15.0881 90.2032
lradius 56.5038
lwrist 35.7408
lhand -24.9718 20.0565
lfingers 7.12502
lthumb 1.5388 50.0307
rfemur -21.1575 7.74454 20.0059
rtibia 39.897
rfoot -29.5412 -1.96758
rtoes -13.4427
lfemur -14.9615 1.83947 -15.3412
ltibia 60.111
lfoot -24.9725 9.75294
ltoes -12.3532
51
root 5.82064 19.9776 -9.92081 4.74531 39.5733 1.59731
lowerback 12.9444 -1.49253 -3.4262
upperback 0.550892 -2.49905 -0.4896
thorax -6.5579 -1.11563 1.87159
lowerneck -19.8704 -5.37856 -1.19778
upperneck 34.3285 -8.65131 3.44759
head 15.6873 -3.17684 0.0475593
rclavicle -4.96962e-017 -2.66371e-014
rhumerus -34.503 2.7283 -84.4654
rradius 33.775
rwrist -8.40588
rhand -24.9985 -8.69222
rfingers 7.12502
rthumb 1.51299 -38.6666
lclavicle -4.96962e-017 -2.66371e-014
lhumerus -36.5049 -15.2669 90.127
lradius 57.3849
lwrist 35.9569
lhand -24.956 19.9815
lfingers 7.12502
lthumb 1.55404 49.9555
rfemur -21.1519 8.29904 19.784
rtibia 39.9973
rfoot -29.7905 -2.1704
rtoes -13.5914
lfemur -15.528 0.706812 -15.0277
ltibia 61.0035
lfoot -21.8246 8.81669
ltoes -14.1064
52
root 5.82821 19.9656 -9.69969 4.72319 39.2687 1.7387
lowerback 13.1246 -1.39579 -3.57508
upperback 0.685687 -2.38333 -0.317465
thorax -6.50784 -1.05409 2.11998
lowerneck -19.9178 -5.39272 -1.56357
upperneck 34.3262 -8.54322 3.47311
head 15.7155 -3.17514 0.139687
rclavicle -7.25564e-015 -4.37326e-015
rhumerus -34.299 3.08351 -84.0866
rradius 33.7537
rwrist -8.4636
rhand -25.065 -8.79922
rfingers 7.12502
rthumb 1.44879 -38.774
lclavicle -7.25564e-015 -4.37326e-015
lhumerus -36.5443 -15.141 90.4002
lradius 58.0975
lwrist 35.9273
lhand -24.7031 19.8036
lfingers 7.12502
lthumb 1.79835 49.7758
rfemur -21.257 9.10683 19.5126
rtibia 40.2946
rfoot -30.2502 -2.01909
rtoes -12.9152
lfemur -15.9998 -0.360889 -14.7603
ltibia 61.76
lfoot -19.2787 7.16685
ltoes -15.5658
53
root 5.83406 19.9418 -9.48358 4.72484 39.0824 1.94336
lowerback 13.4864 -1.43251 -3.34843
upperback 0.734767 -2.42078 -0.473059
thorax -6.67182 -1.07726 1.84648
lowerneck -19.8576 -5.34364 -1.41002
upperneck 34.3589 -8.51098 3.42593
head 15.7043 -3.1488 0.10183
rclavicle 6.01324e-015 5.96354e-015
rhumerus -34.2093 3.15106 -84.1638
rradius 33.6683
rwrist -8.34515
rhand -25.1449 -8.83009
rfingers 7.12502
rthumb 1.37163 -38.8054
lclavicle 6.01324e-015 5.96354e-015
lhumerus -36.8679 -15.2897 90.2522
lradius 59.0056
lwrist 36.1149
lhand -24.6039 19.7562
lfingers 7.12502
lthumb 1.8941 49.7275
rfemur -21.4643 9.39428 19.1776
rtibia 40.776
rfoot -30.4145 -1.91131
rtoes -12.7505
lfemur -16.3945 -1.57828 -14.5531
ltibia 62.3529
lfoot -17.5246 4.89412
ltoes -15.6996
54
root 5.83438 19.9069 -9.27132 4.61641 38.7698 1.86603
lowerback 13.689 -1.31419 -3.39014
upperback 0.841194 -2.25939 -0.256663
thorax -6.66934 -0.994785 2.07369
lowerneck -19.8644 -5.38178 -1.68407
upperneck 34.3327 -8.46006 3.42129
head 15.7059 -3.16484 0.15599
rclavicle 1.21756e-014 -1.21259e-014
rhumerus -34.0135 3.42626 -83.7949
rradius 33.6822
rwrist -8.35443
rhand -25.4102 -8.75503
rfingers 7.12502
rthumb 1.11536 -38.7319
lclavicle 1.21756e-014 -1.21259e-014
lhumerus -36.9471 -15.2549 90.5571
lradius 59.773
lwrist 36.1839
lhand -24.57 19.5929
lfingers 7.12502
lthumb 1.92687 49.5639
rfemur -21.8708 9.78697 19.0975
rtibia 41.3885
rfoot -30.657 -1.69881
rtoes -12.7286
lfemur -16.856 -2.58563 -14.0762
ltibia 62.8941
lfoot -16.23 2.39649
ltoes -15.1431
55
root 5.84615 19.8747 -9.04613 4.67876 38.6445 2.24102
lowerback 13.9241 -1.21035 -3.3161
upperback 0.91984 -2.13295 -0.50027
thorax -6.73624 -0.937262 1.75622
lowerneck -19.693 -5.48995 -1.49091
upperneck 34.3153 -8.71507 3.48711
head 15.6606 -3.23893 0.10703
rclavicle -7.41467e-014 -3.33958e-014
rhumerus -34.0367 3.00215 -83.7879
rradius 33.6218
rwrist -8.19251
rhand -25.6132 -8.62699
rfingers 7.12502
rthumb 0.91934 -38.6048
lclavicle -7.41467e-014 -3.33958e-014
lhumerus -37.2676 -15.856 90.5483
lradius 60.5827
lwrist 36.3786
lhand -24.7334 19.6516
lfingers 7.12502
lthumb 1.7691 49.624
rfemur -22.0799 9.83347 18.6651
rtibia 42.1041
rfoot -30.8398 -1.28086
rtoes -12.5693
lfemur -17.0311 -3.80448 -14.0529
ltibia 63.2403
lfoot -15.4051 0.386548
ltoes -15.3651
56
root 5.85393 19.8365 -8.8337 4.59375 38.392 2.27508
lowerback 14.111 -1.15032 -3.3231
upperback 1.05759 -2.04692 -0.362795
thorax -6.69219 -0.894743 1.89252
lowerneck -19.691 -5.51644 -1.60718
upperneck 34.2759 -8.66628 3.37677
head 15.6376 -3.25162 0.0898034
rclavicle 4.81059e-014 8.94531e-015
rhumerus -33.8409 3.23355 -83.4959
rradius 33.6708
rwrist -8.1083
rhand -25.6727 -8.57691
rfingers 7.12502
rthumb 0.861824 -38.5549
lclavicle 4.81059e-014 8.94531e-015
lhumerus -37.3069 -15.7301 90.7764
lradius 61.2587
lwrist 36.3986
lhand -24.6881 19.5219
lfingers 7.12502
lthumb 1.81281 49.494
rfemur -22.4965 10.0182 18.4907
rtibia 42.8891
rfoot -31.0041 -1.04629
rtoes -12.5434
lfemur -17.3719 -4.87916 -13.7616
ltibia 63.5677
lfoot -14.5702 -1.67897
ltoes -14.2957
57
root 5.8648 19.7995 -8.60751 4.61522 38.1573 2.46561
lowerback 14.2527 -1.12589 -3.31634
upperback 1.14433 -2.01863 -0.407789
thorax -6.68181 -0.88223 1.83824
lowerneck -19.6487 -5.49477 -1.59368
upperneck 34.3072 -8.64449 3.38866
head 15.6423 -3.23872 0.0979962
rclavicle -1.81391e-014 1.68967e-014
rhumerus -33.712 3.42422 -83.4612
rradius 33.6684
rwrist -8.08628
rhand -25.7023 -8.65417
rfingers 7.12502
rthumb 0.833243 -38.6323
lclavicle -1.81391e-014 1.68967e-014
lhumerus -37.561 -15.7376 90.8147
lradius 62.0385
lwrist 36.5267
lhand -24.6558 19.4586
lfingers 7.12502
lthumb 1.84396 49.4304
rfemur -22.8674 10.1341 18.2129
rtibia 43.7087
rfoot -31.2895 -0.5888
rtoes -12.2314
lfemur -17.5886 -5.97683 -13.5697
ltibia 63.7333
lfoot -13.9172 -3.35221
ltoes -13.3524
58
root 5.87978 19.758 -8.3951 4.77118 38.04 2.84184
lowerback 14.4412 -1.11408 -3.38572
upperback 1.2117 -2.02123 -0.448181
thorax -6.71365 -0.881326 1.8394
lowerneck -19.5525 -5.5288 -1.63636
upperneck 34.2969 -8.64863 3.31387
head 15.6118 -3.25921 0.0759862
rclavicle 9.64106e-015 2.54444e-014
rhumerus -33.6375 3.51562 -83.281
rradius 33.7623
rwrist -7.9907
rhand -25.7792 -8.65487
rfingers 7.12502
rthumb 0.759028 -38.6333
lclavicle 9.64106e-015 2.54444e-014
lhumerus -37.7614 -15.7586 90.9892
lradius 62.7089
lwrist 36.6236
lhand -24.6075 19.4166
lfingers 7.12502
lthumb 1.89068 49.3879
rfemur -23.3382 9.95223 17.7351
rtibia 44.6045
rfoot -31.3482 -0.306857
rtoes -12.6409
lfemur -17.8954 -7.17783 -13.6424
ltibia 63.8449
lfoot -13.2647 -4.73159
ltoes -12.2352
